<?xml version="1.0" encoding="UTF-8" standalone="no"?>
<!-- Created with Inkscape (http://www.inkscape.org/) -->

<svg
   width="96.202408mm"
   height="58.378674mm"
   viewBox="0 0 363.59966 220.64381"
   version="1.1"
   id="svg1"
   xml:space="preserve"
   xmlns:inkscape="http://www.inkscape.org/namespaces/inkscape"
   xmlns:sodipodi="http://sodipodi.sourceforge.net/DTD/sodipodi-0.dtd"
   xmlns="http://www.w3.org/2000/svg"
   xmlns:svg="http://www.w3.org/2000/svg"><sodipodi:namedview
     id="namedview1"
     pagecolor="#ffffff"
     bordercolor="#000000"
     borderopacity="0.25"
     inkscape:showpageshadow="2"
     inkscape:pageopacity="0.0"
     inkscape:pagecheckerboard="0"
     inkscape:deskcolor="#d1d1d1"
     inkscape:document-units="mm" /><defs
     id="defs1" /><g
     inkscape:label="Layer 1"
     inkscape:groupmode="layer"
     id="layer1"
     transform="translate(-258.69278,-244.95491)"><g
       id="g33"
       style="fill:#fa5a2a;fill-opacity:1;stroke-width:0.911377"
       transform="matrix(1.0972373,0,0,1.0972373,-34.582706,-41.617246)"><g
         id="g30"
         style="fill:#fa5a2a;fill-opacity:1;stroke-width:0.911377"><path
           d="m 472.42775,261.18751 c -5.14929,0.17007 -10.45042,2.24438 -15.74219,6.43554 -4.61145,3.65234 -5.16045,5.62673 -0.96094,3.45508 4.18832,-2.16587 11.61217,-1.91515 16.73438,0.56445 12.5566,6.07856 23.93638,29.00647 28.99023,58.41016 2.39732,13.94777 2.44155,50.13749 0.0781,63.51172 -5.2568,29.7476 -16.71745,52.08144 -29.9043,58.27344 -4.50669,2.11615 -12.37846,2.20942 -16.24805,0.19141 -4.50918,-2.35156 -4.1684,-1.05522 0.83203,3.16992 9.22329,7.79325 19.05974,9.18493 27.98047,3.95703 22.39594,-13.1249 36.88175,-60.71189 33.57813,-110.31055 -3.55577,-53.38406 -23.02434,-88.39521 -45.33789,-87.6582 z"
           style="fill:#fa5a2a;fill-opacity:1;stroke-width:0.911377"
           id="path14" /><g
           id="g29"
           style="fill:#fa5a2a;fill-opacity:1;stroke-width:0.911377"><path
             d="m 421.11375,356.67142 c -2.12047,-0.0367 -4.27386,0.22137 -5.63207,0.78887 -1.98706,0.83025 -3.47064,2.7767 -2.86437,3.75767 0.52317,0.84651 4.39802,0.63182 5.64763,-0.31332 1.50887,-1.14126 3.91034,-1.04921 5.46541,0.20999 2.02389,1.63885 0.93671,2.36772 -3.53102,2.36772 -6.06585,0 -9.01197,1.91995 -9.01197,5.87317 0,4.16298 6.41706,6.77813 11.923,4.85875 1.41571,-0.49352 1.95189,-0.48471 2.27549,0.0389 0.24826,0.40169 1.34098,0.60978 2.64104,0.50333 l 2.21771,-0.18111 0.15112,-5.97317 c 0.17752,-7.01357 -0.64312,-9.34829 -3.84879,-10.9497 -1.2254,-0.61216 -3.31271,-0.94444 -5.43318,-0.98109 z m 0.40998,10.33528 c 2.65806,0.15211 3.0548,0.3333 3.21548,1.46551 0.29687,2.09184 -4.49874,3.73967 -6.8676,2.35994 -1.20125,-0.69967 -1.29732,-2.40907 -0.18777,-3.32992 0.46496,-0.38587 2.09285,-0.59551 3.83989,-0.49553 z"
             style="fill:#fa5a2a;fill-opacity:1;stroke-width:0.911377"
             id="path28"
             inkscape:export-filename="kickstar.svg"
             inkscape:export-xdpi="347.63986"
             inkscape:export-ydpi="347.63986" /><path
             d="m 428.94142,275.07423 c -4.32084,0.23834 -8.56623,2.06591 -12.42383,5.54101 l -4.24414,3.82227 4.90234,-1.43946 c 6.71331,-1.97281 11.4817,-0.57162 17.63867,5.1875 15.12097,14.14389 24.30623,52.77806 21.04297,88.50001 -2.52183,27.60595 -10.3203,48.62212 -21.9414,59.12109 -6.36279,5.7484 -11.80605,6.58916 -20.64258,3.19336 -4.0626,-1.56121 2.63924,4.44168 7.86718,7.04688 6.39315,3.18583 10.91519,3.1662 17.42579,-0.0781 12.31096,-6.13481 22.45386,-25.06648 27.88281,-52.04297 2.57776,-12.80892 2.58971,-51.06619 0.0195,-63.87305 -3.82888,-19.07873 -9.41297,-33.47237 -16.75977,-43.20312 -6.15787,-8.15606 -13.56618,-12.17264 -20.76757,-11.77539 z"
             style="fill:#fa5a2a;fill-opacity:1;stroke-width:0.911377"
             id="path27" /><path
             d="m 472.17579,390.55274 3.54883,0.006 c 1.95188,0.003 7.26942,0.29449 11.81641,0.64844 l 8.26758,0.64453 -0.60547,3.59961 c -1.12286,6.68545 -5.25295,21.56981 -7.3125,26.35156 -1.12523,2.6125 -2.62499,4.67469 -3.33203,4.58399 -0.70704,-0.0907 -5.63431,-0.42795 -10.95118,-0.75 -5.31687,-0.32205 -9.93589,-0.85386 -10.26367,-1.18164 -0.32779,-0.32778 0.48709,-3.47605 1.81055,-6.99805 1.32346,-3.52201 3.44551,-11.0168 4.71484,-16.6543 z"
             style="fill:#fa5a2a;fill-opacity:1;stroke-width:0.911377"
             id="path26" /><path
             d="m 435.08003,356.65587 v 9.10197 9.10197 h 2.55993 2.55993 v -5.35762 c 0,-2.94678 0.15897,-5.77224 0.35332,-6.27872 0.52831,-1.37676 3.27582,-2.58549 5.87651,-2.58549 2.25359,0 2.30327,-0.0433 2.30327,-1.99105 0,-1.90156 -0.0903,-1.99106 -2.01884,-1.99106 -1.11062,0 -2.82013,0.41389 -3.79878,0.91997 -1.63908,0.8476 -1.83237,0.8476 -2.45215,0 -0.43221,-0.59107 -1.51491,-0.91997 -3.02769,-0.91997 z"
             style="fill:#fa5a2a;fill-opacity:1;stroke-width:0.911377"
             id="path25" /><path
             d="m 396.96552,350.90491 v 9.6753 c 0,10.35764 0.29468,11.78476 2.74548,13.30518 2.0036,1.243 8.19835,1.32903 9.1953,0.12778 1.20897,-1.45672 0.25253,-2.56659 -2.21105,-2.56659 -3.35325,0 -4.041,-1.01826 -4.041,-5.98318 v -4.19432 l 2.70216,-0.17334 c 2.45679,-0.15764 2.70214,-0.30246 2.70214,-1.59551 0,-1.29091 -0.24659,-1.43803 -2.67437,-1.5944 l -2.67437,-0.17221 -0.17,-3.24103 -0.16999,-3.24102 -2.70215,-0.17332 z"
             style="fill:#fa5a2a;fill-opacity:1;stroke-width:0.911377"
             id="path24" /><path
             d="m 380.77485,350.97935 c -8.36694,0.0183 -11.68412,1.77291 -11.68412,6.18095 0,4.23497 2.28108,5.91164 10.98525,8.07644 5.79593,1.4415 7.84787,2.7345 6.86759,4.32544 -0.53919,0.87507 -1.42894,1.03108 -5.87762,1.03108 -5.06349,0 -5.28005,-0.0533 -6.37982,-1.5644 -0.89782,-1.2336 -1.59765,-1.5644 -3.30657,-1.5644 -4.03348,0 -3.33358,3.878 1.1033,6.11539 2.1615,1.08998 3.4429,1.27996 8.63753,1.27996 3.35502,0 6.82123,-0.27293 7.70203,-0.60665 5.64828,-2.14008 6.15404,-8.61404 0.87885,-11.25191 -1.16685,-0.5835 -4.29811,-1.61973 -6.95758,-2.30327 -6.43327,-1.6535 -7.39536,-2.10132 -7.39536,-3.44102 0,-1.54641 1.66443,-2.30771 5.04542,-2.30771 3.39051,0 5.69352,0.78458 6.75648,2.30215 0.99847,1.42553 4.96646,1.57083 5.49208,0.20111 0.60704,-1.58194 -0.99044,-3.88001 -3.61879,-5.20541 -2.13646,-1.07735 -3.44221,-1.27826 -8.24867,-1.26775 z"
             style="fill:#fa5a2a;fill-opacity:1;stroke-width:0.911377"
             id="path23" /><path
             d="m 348.61129,350.96714 v 11.56746 c 0,6.36189 0.18334,11.74969 0.40666,11.973 0.2233,0.2233 1.43928,0.3296 2.70214,0.23666 l 2.2955,-0.16888 0.17555,-3.1288 c 0.0961,-1.72085 0.38861,-3.34515 0.64998,-3.6088 0.84903,-0.85642 2.81528,0.72822 4.84987,3.90879 1.92986,3.01684 2.0696,3.11324 4.55765,3.11324 1.54145,0 2.56659,-0.25965 2.56659,-0.64887 0,-1.02335 -3.39716,-6.35832 -4.74876,-7.45757 l -1.2244,-0.99553 1.2233,-0.99553 c 1.20847,-0.98381 4.181,-6.35164 4.181,-7.54979 0,-0.3835 -1.02798,-0.55297 -2.70215,-0.44554 -2.62137,0.1682 -2.74996,0.26245 -4.30211,3.1588 -1.59383,2.97412 -3.32509,4.48787 -4.38433,3.83323 -0.30864,-0.19077 -0.55776,-3.11944 -0.55776,-6.5676 v -6.22427 h -2.84436 z"
             style="fill:#fa5a2a;fill-opacity:1;stroke-width:0.911377"
             id="path22" /><path
             d="m 336.22718,356.66809 c 5.47795,-0.021 8.97087,1.9531 8.97087,5.06986 0,1.77291 -3.57259,1.6209 -5.79206,-0.24666 -1.85129,-1.55776 -3.29086,-1.77135 -5.19542,-0.76887 -1.82883,0.96263 -2.07811,1.57554 -2.08772,5.13652 -0.008,2.85089 0.17478,3.3738 1.55551,4.45989 1.87759,1.4769 4.75213,1.23658 6.66093,-0.55666 1.28175,-1.20415 4.5272,-1.58827 5.1332,-0.60776 0.70767,1.14505 -1.38252,3.86309 -3.67657,4.78099 -3.22364,1.28983 -8.28201,1.19355 -11.12191,-0.21223 -3.09812,-1.53357 -4.50353,-4.02692 -4.48766,-7.96533 0.0244,-6.04893 3.35522,-9.06415 10.04083,-9.08975 z"
             style="fill:#fa5a2a;fill-opacity:1;stroke-width:0.911377"
             id="path21" /><path
             d="m 319.81319,351.08046 c -2.53568,-0.18529 -3.41118,0.72258 -2.73881,2.84104 0.28017,0.88274 0.79163,1.05555 2.71437,0.91552 2.21544,-0.16134 2.36993,-0.28333 2.36993,-1.87882 0,-1.59261 -0.15656,-1.71778 -2.34549,-1.87774 z"
             style="fill:#fa5a2a;fill-opacity:1;stroke-width:0.911377"
             id="path20" /><path
             d="m 320.27317,357.32808 1.88551,0.18109 0.15777,8.67532 0.15666,8.67532 h -2.51437 c -1.76755,0 -2.61603,-0.26729 -2.85881,-0.89997 -0.18991,-0.49491 -0.34554,-4.17513 -0.34554,-8.17867 0,-8.11454 0.27105,-8.76484 3.51878,-8.45309 z"
             style="fill:#fa5a2a;fill-opacity:1;stroke-width:0.911377"
             id="path19" /><path
             d="m 291.38841,351.03158 c -1.09281,0.0268 -1.34019,0.31638 -1.57329,1.18662 -0.60909,2.274 -0.40889,20.36125 0.23889,21.57164 0.4836,0.90361 1.08462,1.09715 2.98658,0.95886 l 2.38104,-0.17332 0.28444,-4.55099 0.28444,-4.55098 2.45105,-0.17667 c 2.21912,-0.15986 2.64855,0.0346 4.55098,2.06661 1.15536,1.23401 2.87777,3.36153 3.82767,4.72765 1.62199,2.33269 1.90761,2.49511 4.6932,2.6566 1.63136,0.0946 2.96549,-0.0119 2.96549,-0.23667 0,-0.82603 -5.0704,-8.51163 -6.50205,-9.85528 l -1.47774,-1.38663 1.63551,-1.74217 c 1.52751,-1.62664 5.7754,-9.08797 5.7754,-10.14418 0,-0.26124 -1.33833,-0.39789 -2.97436,-0.30332 l -2.97437,0.17222 -2.13439,3.69768 c -2.91848,5.05741 -4.50727,6.36162 -7.48424,6.14428 l -2.35215,-0.17111 -0.28444,-4.83543 -0.28444,-4.83542 -2.6277,-0.17111 c -0.58287,-0.0378 -1.04125,-0.0578 -1.40552,-0.0488 z"
             style="fill:#fa5a2a;fill-opacity:1;stroke-width:0.911377"
             id="path18" /><path
             d="m 386.06056,281.57227 c -0.43303,0.0109 -2.13712,2.30998 -3.78711,5.10938 -7.77048,13.18343 -25.28944,23.75421 -42.08204,25.39062 -8.98738,0.87581 -17.77272,-0.74262 -28.2207,-5.20117 -4.5671,-1.94896 -8.58977,-3.25983 -8.9375,-2.91211 -0.34773,0.34773 -2.54316,5.23647 -4.87891,10.86328 l -4.24609,10.23047 2.42383,2.03125 c 6.08272,5.09518 26.74388,10.50817 39.82226,10.4336 20.77134,-0.11843 41.44383,-8.98105 57.45508,-24.63282 l 7.45704,-7.29101 3.60351,3.01367 c 11.55435,9.66472 42.80089,31.94531 44.80078,31.94531 0.16649,0 0.30274,-1.2789 0.30274,-2.84179 0,-2.48739 -1.15313,-3.58628 -9.25,-8.8086 -13.91287,-8.97351 -27.90478,-20.68977 -41.48047,-34.73437 -6.70735,-6.93903 -12.54938,-12.60662 -12.98242,-12.59571 z"
             style="fill:#fa5a2a;fill-opacity:1;stroke-width:0.911377"
             id="path17" /><path
             d="m 474.58204,346.71876 c -0.44403,-0.18334 -0.80859,1.01762 -0.80859,2.66797 0,3.27648 0.0899,3.32665 15.5,8.63672 8.82377,3.04052 8.5,3.05049 8.5,-0.25977 0,-2.65029 -0.55638,-2.98658 -11.19141,-6.75 -6.15596,-2.17841 -11.55597,-4.11159 -12,-4.29492 z"
             style="fill:#fa5a2a;fill-opacity:1;stroke-width:0.911377"
             id="path16" /><path
             d="m 272.83399,378.55274 c -0.50358,0 -1.91426,2.58751 -3.13281,5.75 -3.36001,8.72025 -3.19968,20.12873 0.38476,27.45508 5.10683,10.43796 15.91591,18.15197 29.89649,21.33594 10.26568,2.33793 30.4225,1.289 46.29102,-2.41016 24.42192,-5.69306 52.84979,-8.3792 78.18554,-7.38672 l 13.18555,0.51563 1.98047,-3.25391 c 2.66593,-4.38377 8.13474,-21.08712 8.83203,-26.97461 l 0.5625,-4.74804 -19.87305,-0.54102 c -30.63495,-0.83359 -57.00753,1.35193 -81.87304,6.78516 -15.90856,3.47609 -22.97632,4.45833 -32.00001,4.44726 -18.5879,-0.0228 -32.02226,-5.9209 -39.13086,-17.18164 -1.31667,-2.08576 -2.80501,-3.79297 -3.30859,-3.79297 z"
             style="fill:#fa5a2a;fill-opacity:1;stroke-width:0.911377"
             id="path15" /><path
             d="m 525.85157,362.67774 c -1.09732,-0.1 -1.13528,0.48069 -0.90625,2.46094 0.31802,2.7497 0.63917,2.90189 9.82813,4.66992 21.5801,4.15218 20.06124,3.65965 21.45508,6.97461 3.20886,7.63162 -2.45349,10.82469 -24.83985,14.01172 l -8.88281,1.26563 -2.32617,11.49609 c -1.27894,6.32283 -3.2418,14.15184 -4.36328,17.39844 l -2.03906,5.90234 11.24804,-0.63281 c 6.18681,-0.34882 15.00726,-1.54659 19.60157,-2.66211 17.40642,-4.22637 31.5206,-11.58592 42.21093,-22.00977 11.54806,-11.26019 14.89629,-21.4322 8.9004,-27.0332 -4.2207,-3.94272 -7.48987,-4.70364 -23.04102,-5.36133 -11.51893,-0.48716 -35.93292,-3.81428 -45.36524,-6.18164 -0.63043,-0.15823 -1.11469,-0.26551 -1.48047,-0.29883 z"
             style="fill:#fa5a2a;fill-opacity:1;stroke-width:0.911377"
             id="path13" /></g></g><path
         sodipodi:type="star"
         style="fill:#fa5a2a;fill-opacity:1;stroke:#f9f9f9;stroke-width:1.89935;stroke-linecap:square;stroke-linejoin:bevel;stroke-miterlimit:4.9;paint-order:markers stroke fill"
         id="path33"
         inkscape:flatsided="false"
         sodipodi:sides="5"
         sodipodi:cx="394.991"
         sodipodi:cy="330.27802"
         sodipodi:r1="11.168572"
         sodipodi:r2="5.1375422"
         sodipodi:arg1="0.52359878"
         sodipodi:arg2="1.1519173"
         inkscape:rounded="-0.14"
         inkscape:randomized="0"
         d="m 404.66326,335.8623 c 0.53444,-0.92567 -8.5591,-0.45616 -7.58264,-0.89091 0.97647,-0.43475 -5.45721,6.00891 -4.4117,6.23114 1.04551,0.22223 -2.21108,-8.28115 -1.49586,-7.48683 0.71521,0.79433 -7.40118,-3.33327 -7.28945,-2.27025 0.11173,1.06302 7.19258,-4.66188 6.65815,-3.73621 -0.53444,0.92567 0.88303,-8.06897 -0.0934,-7.63422 -0.97646,0.43475 6.65634,5.39995 5.61082,5.17772 -1.04551,-0.22223 7.94693,-1.65363 7.23171,-2.44796 -0.71521,-0.79433 -3.07874,7.99923 -3.19046,6.93622 -0.11173,-1.06302 4.02843,7.04697 4.56286,6.1213 z"
         inkscape:transform-center-x="-3.7469858"
         inkscape:transform-center-y="-4.7496407"
         transform="matrix(0.95331689,-1.0939023,1.0920288,0.95495245,-335.99408,445.80924)" /></g></g></svg>
