<?xml version="1.0" encoding="UTF-8" standalone="no"?>
<!-- Created with Inkscape (http://www.inkscape.org/) -->

<svg
   width="110.92287mm"
   height="110.92287mm"
   viewBox="0 0 419.23607 419.23607"
   version="1.1"
   id="svg1"
   xml:space="preserve"
   xmlns:inkscape="http://www.inkscape.org/namespaces/inkscape"
   xmlns:sodipodi="http://sodipodi.sourceforge.net/DTD/sodipodi-0.dtd"
   xmlns="http://www.w3.org/2000/svg"
   xmlns:svg="http://www.w3.org/2000/svg"><sodipodi:namedview
     id="namedview1"
     pagecolor="#ffffff"
     bordercolor="#000000"
     borderopacity="0.25"
     inkscape:showpageshadow="2"
     inkscape:pageopacity="0.0"
     inkscape:pagecheckerboard="0"
     inkscape:deskcolor="#d1d1d1"
     inkscape:document-units="mm" /><defs
     id="defs1" /><g
     inkscape:label="Layer 1"
     inkscape:groupmode="layer"
     id="layer1"
     transform="translate(-223.28875,-222.52926)"><circle
       style="fill:#fa5a2a;fill-opacity:1;stroke:none;stroke-width:3.02362;stroke-linecap:square;stroke-linejoin:bevel;stroke-miterlimit:4.9;paint-order:markers stroke fill"
       id="path29"
       cx="432.90677"
       cy="432.14728"
       r="209.61803" /><path
       d="m 515.22267,501.58009 c -3.7275,-0.0644 -7.51284,0.38914 -9.90039,1.38672 -3.49297,1.45946 -6.1009,4.88106 -5.03516,6.60547 0.91966,1.48804 7.73111,1.11065 9.92774,-0.55078 2.65239,-2.00618 6.87384,-1.84438 9.60742,0.36914 3.55773,2.88087 1.64662,4.16211 -6.20703,4.16211 -10.66292,0 -15.8418,3.37502 -15.8418,10.32422 0,7.31794 11.28031,11.91502 20.95898,8.54101 2.48863,-0.86754 3.43115,-0.85206 4,0.0684 0.43641,0.70612 2.35725,1.0719 4.64258,0.88477 l 3.89844,-0.31836 0.26563,-10.5 c 0.31206,-12.32887 -1.13051,-16.43298 -6.76563,-19.24805 -2.15408,-1.07608 -5.82329,-1.66018 -9.55078,-1.72461 z m 0.7207,18.16797 c 4.67249,0.26739 5.36989,0.58592 5.65235,2.57617 0.52186,3.67718 -7.90815,6.57382 -12.07227,4.14844 -2.11164,-1.22992 -2.28052,-4.2348 -0.33008,-5.85352 0.81733,-0.67832 3.67894,-1.04683 6.75,-0.87109 z"
       style="fill:#ffffff;fill-opacity:1"
       id="path28"
       inkscape:export-filename="kickstar.svg"
       inkscape:export-xdpi="347.63986"
       inkscape:export-ydpi="347.63986" /><path
       d="m 428.94142,275.07423 c -4.32084,0.23834 -8.56623,2.06591 -12.42383,5.54101 l -4.24414,3.82227 4.90234,-1.43946 c 6.71331,-1.97281 11.4817,-0.57162 17.63867,5.1875 15.12097,14.14389 24.30623,52.77806 21.04297,88.50001 -2.52183,27.60595 -10.3203,48.62212 -21.9414,59.12109 -6.36279,5.7484 -11.80605,6.58916 -20.64258,3.19336 -4.0626,-1.56121 2.63924,4.44168 7.86718,7.04688 6.39315,3.18583 10.91519,3.1662 17.42579,-0.0781 12.31096,-6.13481 22.45386,-25.06648 27.88281,-52.04297 2.57776,-12.80892 2.58971,-51.06619 0.0195,-63.87305 -3.82888,-19.07873 -9.41297,-33.47237 -16.75977,-43.20312 -6.15787,-8.15606 -13.56618,-12.17264 -20.76757,-11.77539 z"
       style="fill:#ffffff;fill-opacity:1"
       id="path27" /><path
       d="m 472.17579,390.55274 3.54883,0.006 c 1.95188,0.003 7.26942,0.29449 11.81641,0.64844 l 8.26758,0.64453 -0.60547,3.59961 c -1.12286,6.68545 -5.25295,21.56981 -7.3125,26.35156 -1.12523,2.6125 -2.62499,4.67469 -3.33203,4.58399 -0.70704,-0.0907 -5.63431,-0.42795 -10.95118,-0.75 -5.31687,-0.32205 -9.93589,-0.85386 -10.26367,-1.18164 -0.32779,-0.32778 0.48709,-3.47605 1.81055,-6.99805 1.32346,-3.52201 3.44551,-11.0168 4.71484,-16.6543 z"
       style="fill:#ffffff;fill-opacity:1"
       id="path26" /><path
       d="m 539.77345,501.55275 v 16 16 h 4.5 4.5 v -9.41797 c 0,-5.18002 0.27944,-10.14678 0.62109,-11.03711 0.92869,-2.42014 5.75843,-4.54492 10.33008,-4.54492 3.96151,0 4.04883,-0.0762 4.04883,-3.5 0,-3.34266 -0.15875,-3.5 -3.54883,-3.5 -1.95232,0 -4.95741,0.72756 -6.67773,1.61718 -2.88128,1.48996 -3.22106,1.48996 -4.31055,0 -0.75975,-1.03903 -2.663,-1.61718 -5.32226,-1.61718 z"
       style="fill:#ffffff;fill-opacity:1"
       id="path25" /><path
       d="m 472.77345,491.44337 v 17.00781 c 0,18.20731 0.51801,20.71599 4.82617,23.38868 3.52206,2.18501 14.41156,2.33624 16.16406,0.22461 2.1252,-2.56071 0.44392,-4.51172 -3.88672,-4.51172 -5.89454,0 -7.10351,-1.78994 -7.10351,-10.51758 v -7.37305 l 4.75,-0.30469 c 4.31871,-0.27712 4.75,-0.53168 4.75,-2.80468 0,-2.26925 -0.43348,-2.52787 -4.70117,-2.80274 l -4.70117,-0.30273 -0.29883,-5.69727 -0.29883,-5.69726 -4.75,-0.30469 z"
       style="fill:#ffffff;fill-opacity:1"
       id="path24" /><path
       d="m 444.31251,491.57423 c -14.70791,0.0322 -20.53906,3.11651 -20.53906,10.86523 0,7.4445 4.00982,10.39185 19.31054,14.19727 10.18845,2.53396 13.79546,4.80686 12.07227,7.60352 -0.94782,1.53826 -2.51189,1.8125 -10.33203,1.8125 -8.90092,0 -9.28161,-0.0937 -11.21484,-2.75 -1.57825,-2.16851 -2.80845,-2.75 -5.8125,-2.75 -7.09028,0 -5.85997,6.81698 1.93945,10.75 3.79962,1.91603 6.05215,2.25 15.18359,2.25 5.89765,0 11.99076,-0.47978 13.53907,-1.06641 9.92891,-3.76197 10.81796,-15.14228 1.54492,-19.7793 -2.05117,-1.0257 -7.55548,-2.84725 -12.23047,-4.04882 -11.30878,-2.90663 -13,-3.69383 -13,-6.04883 0,-2.71838 2.92583,-4.05664 8.86914,-4.05664 5.96004,0 10.00842,1.37918 11.87695,4.04687 1.75517,2.50587 8.73034,2.7613 9.6543,0.35352 1.06711,-2.78084 -1.74105,-6.82053 -6.36133,-9.15039 -3.75559,-1.89383 -6.05091,-2.247 -14.5,-2.22852 z"
       style="fill:#ffffff;fill-opacity:1"
       id="path23" /><path
       d="m 387.77345,491.55275 v 20.33398 c 0,11.18333 0.32229,20.65433 0.71484,21.04688 0.39255,0.39254 2.53005,0.57939 4.75,0.41601 l 4.03516,-0.29687 0.30859,-5.5 c 0.16901,-3.025 0.68313,-5.8803 1.14258,-6.34375 1.49247,-1.50548 4.94887,1.28009 8.52539,6.87109 3.39243,5.30321 3.63809,5.47266 8.01172,5.47266 2.70966,0 4.51172,-0.45643 4.51172,-1.14063 0,-1.79891 -5.97174,-11.17703 -8.34766,-13.10937 l -2.15234,-1.75 2.15039,-1.75 c 2.12432,-1.72941 7.34961,-11.1653 7.34961,-13.27149 0,-0.67412 -1.80704,-0.97204 -4.75,-0.7832 -4.60799,0.29568 -4.83404,0.46136 -7.5625,5.55273 -2.80173,5.2281 -5.84505,7.88905 -7.70703,6.73828 -0.54256,-0.33532 -0.98047,-5.48354 -0.98047,-11.54492 v -10.9414 h -5 z"
       style="fill:#ffffff;fill-opacity:1"
       id="path22" /><path
       d="m 366.00391,501.57423 c 9.62946,-0.0369 15.76954,3.43327 15.76954,8.91211 0,3.11653 -6.28012,2.84932 -10.18164,-0.43359 -3.25431,-2.73832 -5.78487,-3.11379 -9.13282,-1.35157 -3.21483,1.69216 -3.65302,2.76959 -3.66992,9.0293 -0.0135,5.01146 0.30723,5.93065 2.73438,7.83984 3.30052,2.5962 8.35356,2.17375 11.70898,-0.97851 2.25314,-2.11672 7.95818,-2.79198 9.02344,-1.06836 1.24399,2.01283 -2.43027,6.79076 -6.46289,8.4043 -5.66672,2.26736 -14.55862,2.0981 -19.55078,-0.37305 -5.44604,-2.69581 -7.91658,-7.07878 -7.88868,-14.00195 0.0429,-10.63318 5.89801,-15.93352 17.65039,-15.97852 z"
       style="fill:#ffffff;fill-opacity:1"
       id="path21" /><path
       d="m 337.1504,491.75196 c -4.45737,-0.32571 -5.99639,1.27019 -4.81445,4.99415 0.4925,1.55174 1.39158,1.85552 4.77148,1.60937 3.89444,-0.28363 4.16602,-0.49807 4.16602,-3.30273 0,-2.79957 -0.27521,-3.01961 -4.12305,-3.30079 z"
       style="fill:#ffffff;fill-opacity:1"
       id="path20" /><path
       d="m 337.95899,502.73439 3.31446,0.31836 0.27734,15.25 0.27539,15.25 h -4.41992 c -3.10711,0 -4.59861,-0.46986 -5.02539,-1.58203 -0.33385,-0.86998 -0.60742,-7.33929 -0.60742,-14.37696 0,-14.26424 0.47647,-15.40737 6.18554,-14.85937 z"
       style="fill:#ffffff;fill-opacity:1"
       id="path19" /><path
       d="m 287.1836,491.66603 c -1.92101,0.0471 -2.35588,0.55616 -2.76562,2.08593 -1.07069,3.99736 -0.71878,35.79224 0.41992,37.91993 0.8501,1.58842 1.90661,1.92864 5.25,1.68554 l 4.18554,-0.30468 0.5,-8 0.5,-8 4.3086,-0.31055 c 3.90091,-0.28102 4.65579,0.0609 8,3.63281 2.03096,2.16922 5.05872,5.9091 6.72851,8.31055 2.85123,4.10055 3.35332,4.38605 8.25,4.66992 2.8677,0.16624 5.2129,-0.0209 5.2129,-0.41601 0,-1.45205 -8.91304,-14.96227 -11.42969,-17.32422 l -2.59766,-2.4375 2.875,-3.0625 c 2.68514,-2.85939 10.15235,-15.97538 10.15235,-17.83204 0,-0.45923 -2.35261,-0.69944 -5.22852,-0.5332 l -5.22852,0.30274 -3.75195,6.5 c -5.13028,8.89022 -7.92316,11.18285 -13.15625,10.80078 l -4.13477,-0.30078 -0.5,-8.5 -0.5,-8.5 -4.61914,-0.30079 c -1.0246,-0.0664 -1.83036,-0.10163 -2.4707,-0.0859 z"
       style="fill:#ffffff;fill-opacity:1"
       id="path18" /><path
       d="m 386.06056,281.57227 c -0.43303,0.0109 -2.13712,2.30998 -3.78711,5.10938 -7.77048,13.18343 -25.28944,23.75421 -42.08204,25.39062 -8.98738,0.87581 -17.77272,-0.74262 -28.2207,-5.20117 -4.5671,-1.94896 -8.58977,-3.25983 -8.9375,-2.91211 -0.34773,0.34773 -2.54316,5.23647 -4.87891,10.86328 l -4.24609,10.23047 2.42383,2.03125 c 6.08272,5.09518 26.74388,10.50817 39.82226,10.4336 20.77134,-0.11843 41.44383,-8.98105 57.45508,-24.63282 l 7.45704,-7.29101 3.60351,3.01367 c 11.55435,9.66472 42.80089,31.94531 44.80078,31.94531 0.16649,0 0.30274,-1.2789 0.30274,-2.84179 0,-2.48739 -1.15313,-3.58628 -9.25,-8.8086 -13.91287,-8.97351 -27.90478,-20.68977 -41.48047,-34.73437 -6.70735,-6.93903 -12.54938,-12.60662 -12.98242,-12.59571 z"
       style="fill:#ffffff;fill-opacity:1"
       id="path17" /><path
       d="m 474.58204,346.71876 c -0.44403,-0.18334 -0.80859,1.01762 -0.80859,2.66797 0,3.27648 0.0899,3.32665 15.5,8.63672 8.82377,3.04052 8.5,3.05049 8.5,-0.25977 0,-2.65029 -0.55638,-2.98658 -11.19141,-6.75 -6.15596,-2.17841 -11.55597,-4.11159 -12,-4.29492 z"
       style="fill:#ffffff;fill-opacity:1"
       id="path16" /><path
       d="m 272.83399,378.55274 c -0.50358,0 -1.91426,2.58751 -3.13281,5.75 -3.36001,8.72025 -3.19968,20.12873 0.38476,27.45508 5.10683,10.43796 15.91591,18.15197 29.89649,21.33594 10.26568,2.33793 30.4225,1.289 46.29102,-2.41016 24.42192,-5.69306 52.84979,-8.3792 78.18554,-7.38672 l 13.18555,0.51563 1.98047,-3.25391 c 2.66593,-4.38377 8.13474,-21.08712 8.83203,-26.97461 l 0.5625,-4.74804 -19.87305,-0.54102 c -30.63495,-0.83359 -57.00753,1.35193 -81.87304,6.78516 -15.90856,3.47609 -22.97632,4.45833 -32.00001,4.44726 -18.5879,-0.0228 -32.02226,-5.9209 -39.13086,-17.18164 -1.31667,-2.08576 -2.80501,-3.79297 -3.30859,-3.79297 z"
       style="fill:#ffffff;fill-opacity:1"
       id="path15" /><path
       d="m 472.42775,261.18751 c -5.14929,0.17007 -10.45042,2.24438 -15.74219,6.43554 -4.61145,3.65234 -5.16045,5.62673 -0.96094,3.45508 4.18832,-2.16587 11.61217,-1.91515 16.73438,0.56445 12.5566,6.07856 23.93638,29.00647 28.99023,58.41016 2.39732,13.94777 2.44155,50.13749 0.0781,63.51172 -5.2568,29.7476 -16.71745,52.08144 -29.9043,58.27344 -4.50669,2.11615 -12.37846,2.20942 -16.24805,0.19141 -4.50918,-2.35156 -4.1684,-1.05522 0.83203,3.16992 9.22329,7.79325 19.05974,9.18493 27.98047,3.95703 22.39594,-13.1249 36.88175,-60.71189 33.57813,-110.31055 -3.55577,-53.38406 -23.02434,-88.39521 -45.33789,-87.6582 z"
       style="fill:#ffffff;fill-opacity:1"
       id="path14" /><path
       d="m 525.85157,362.67774 c -1.09732,-0.1 -1.13528,0.48069 -0.90625,2.46094 0.31802,2.7497 0.63917,2.90189 9.82813,4.66992 21.5801,4.15218 20.06124,3.65965 21.45508,6.97461 3.20886,7.63162 -2.45349,10.82469 -24.83985,14.01172 l -8.88281,1.26563 -2.32617,11.49609 c -1.27894,6.32283 -3.2418,14.15184 -4.36328,17.39844 l -2.03906,5.90234 11.24804,-0.63281 c 6.18681,-0.34882 15.00726,-1.54659 19.60157,-2.66211 17.40642,-4.22637 31.5206,-11.58592 42.21093,-22.00977 11.54806,-11.26019 14.89629,-21.4322 8.9004,-27.0332 -4.2207,-3.94272 -7.48987,-4.70364 -23.04102,-5.36133 -11.51893,-0.48716 -35.93292,-3.81428 -45.36524,-6.18164 -0.63043,-0.15823 -1.11469,-0.26551 -1.48047,-0.29883 z"
       style="fill:#ffffff;fill-opacity:1"
       id="path13" /></g></svg>
